<svg width="38" height="38" viewBox="0 0 38 38" fill="none" xmlns="http://www.w3.org/2000/svg">
<circle cx="18.5185" cy="18.5185" r="18.5185" fill="white"/>
<path d="M12.4348 24.3441C13.367 25.5185 15.1019 25.5185 18.5717 25.5185H19.1321C22.602 25.5185 24.3369 25.5185 25.2691 24.3441M12.4348 24.3441C11.5026 23.1697 11.8224 21.3867 12.4618 17.8206C12.9166 15.2847 13.1439 14.0167 14.0072 13.2676M12.4348 24.3441C12.4348 24.3441 12.4348 24.3441 12.4348 24.3441ZM25.2691 24.3441C26.2012 23.1697 25.8815 21.3867 25.242 17.8206C24.7873 15.2847 24.5599 14.0167 23.6967 13.2676M25.2691 24.3441C25.2691 24.3441 25.2691 24.3441 25.2691 24.3441ZM23.6967 13.2676C22.8335 12.5185 21.5997 12.5185 19.1321 12.5185H18.5717C16.1042 12.5185 14.8704 12.5185 14.0072 13.2676M23.6967 13.2676C23.6967 13.2676 23.6967 13.2676 23.6967 13.2676ZM14.0072 13.2676C14.0072 13.2676 14.0072 13.2676 14.0072 13.2676Z" stroke="black" stroke-width="1.5"/>
<path d="M16.8519 15.5185C17.1431 16.6837 17.9286 17.5185 18.8519 17.5185C19.7753 17.5185 20.5608 16.6837 20.8519 15.5185" stroke="black" stroke-width="1.5" stroke-linecap="round"/>
</svg>
