<svg width="17" height="15" viewBox="0 0 17 15" fill="none" xmlns="http://www.w3.org/2000/svg">
<path d="M6.13987 12.8473L6.60415 12.2583L6.13987 12.8473ZM8.49128 2.46591L7.95095 2.98601C8.09234 3.13291 8.28744 3.21591 8.49133 3.21591C8.69521 3.21591 8.8903 3.13291 9.03167 2.98601L8.49128 2.46591ZM10.844 12.8473L11.3083 13.4363L10.844 12.8473ZM6.13987 12.8473L6.60415 12.2583C5.42071 11.3254 4.15642 10.4359 3.15159 9.3045C2.17248 8.20207 1.50014 6.92925 1.50004 5.28103H0.750036H3.62173e-05C0.000167185 7.39738 0.88381 9.00989 2.03009 10.3005C3.15065 11.5622 4.58117 12.5736 5.6756 13.4363L6.13987 12.8473ZM0.750036 5.28103H1.50004C1.49994 3.67935 2.40466 2.34496 3.62601 1.78667C4.80008 1.24998 6.40104 1.37583 7.95095 2.98601L8.49128 2.46591L9.03161 1.94581C7.09778 -0.0632265 4.828 -0.412105 3.00233 0.422431C1.22394 1.23536 -9.76307e-05 3.11814 3.62173e-05 5.28103H0.750036ZM6.13987 12.8473L5.6756 13.4363C6.0706 13.7476 6.50542 14.0885 6.94871 14.3475C7.39175 14.6064 7.91458 14.8275 8.49204 14.8275L8.492 14.0775L8.49195 13.3275C8.29528 13.3275 8.04394 13.2502 7.70541 13.0524C7.36712 12.8548 7.01295 12.5805 6.60415 12.2583L6.13987 12.8473ZM10.844 12.8473L11.3083 13.4363C12.4026 12.5736 13.833 11.5622 14.9534 10.3005C16.0996 9.00989 16.983 7.39738 16.9829 5.28103H16.2329H15.4829C15.483 6.92925 14.8108 8.20207 13.8318 9.3045C12.8271 10.4359 11.5629 11.3254 10.3796 12.2583L10.844 12.8473ZM16.2329 5.28103H16.9829C16.9827 3.11814 15.7585 1.23536 13.98 0.422431C12.1542 -0.412105 9.88446 -0.0632265 7.95088 1.94581L8.49128 2.46591L9.03167 2.98601C10.5814 1.37583 12.1823 1.24998 13.3565 1.78667C14.5779 2.34496 15.4828 3.67935 15.4829 5.28103H16.2329ZM10.844 12.8473L10.3796 12.2583C9.97086 12.5805 9.61672 12.8548 9.27846 13.0524C8.93995 13.2502 8.68862 13.3275 8.49195 13.3275L8.492 14.0775L8.49204 14.8275C9.06951 14.8275 9.59231 14.6064 10.0353 14.3475C10.4786 14.0885 10.9134 13.7476 11.3083 13.4363L10.844 12.8473Z" fill="white"/>
</svg>
